SplineFontDB: 3.2
FontName: Samaano-Thin
FullName: Samaano Thin
FamilyName: Samaano
Weight: Thin
Copyright: Copyright (c) 2024, Samaano Font Authors (https://github.com/mitradranirban/samaano-fonts)
UComments: "2024-8-27: Created with FontForge (http://fontforge.org)"
Version: 0.1
StyleMapFamilyName: Samaano Thin
ItalicAngle: 0
UnderlinePosition: -204
UnderlineWidth: 102
Ascent: 1638
Descent: 410
InvalidEm: 0
UFOAscent: 1638
UFODescent: -410
LayerCount: 2
Layer: 0 0 "Back" 1
Layer: 1 0 "public.default" 0 "glyphs"
StyleMap: 0x0040
FSType: 0
OS2Version: 0
OS2_WeightWidthSlopeOnly: 0
OS2_UseTypoMetrics: 0
CreationTime: 1725036559
ModificationTime: 1725036732
PfmFamily: 16
TTFWeight: 100
TTFWidth: 5
LineGap: 0
VLineGap: 0
OS2TypoAscent: 1638
OS2TypoAOffset: 0
OS2TypoDescent: -410
OS2TypoDOffset: 0
OS2TypoLinegap: 0
OS2WinAscent: 1800
OS2WinAOffset: 0
OS2WinDescent: 600
OS2WinDOffset: 0
HheadAscent: 1638
HheadAOffset: 0
HheadDescent: -410
HheadDOffset: 0
OS2CapHeight: 1554
OS2XHeight: 1024
OS2FamilyClass: 1031
OS2Vendor: 'anir'
DEI: 91125
LangName: 1033 "Copyright (c) 2024, Samaano Font Authors (https://github.com/mitradranirban/samaano-fonts)" "" "" "" "" "Version 0.001" "" "" "" "Dr Anirban Mitra" "A Monspace Variable Font Family in Latin an Devanagari created using rectangular components only " "" "https://github.com/mitradranirban" "This Font Software is licensed under the SIL Open Font License, Version 1.1." "http://scripts.sil.org/OFL"
Encoding: UnicodeBmp
UnicodeInterp: none
NameList: AGL For New Fonts
DisplaySize: -128
AntiAlias: 1
FitToEm: 0
WinInfo: 70 10 4
Grid
1098 2662 m 0
 1098 -1434 l 1024
102 2662 m 0
 102 -1434 l 1024
-1024 2436 m 0
 3072 2436 l 1024
-1024 1023 m 0
 3072 1023 l 1024
EndSplineSet
BeginChars: 65536 97

StartChar: .notdef
Encoding: 0 0 0
GlifName: _notdef
Width: 1200
VWidth: 0
Flags: W
LayerCount: 2
Fore
SplineSet
100 0 m 257
 100 64 l 257
 100 1632 l 257
 1098 1640 l 257
 1100 0 l 257
 1030 0 l 257
 170 0 l 257
 100 0 l 257
170 64 m 257
 567 827 l 257
 174 1546 l 257
 170 64 l 257
266 64 m 257
 946 64 l 257
 605 750 l 257
 266 64 l 257
294 1548 m 257
 607 909 l 257
 925 1558 l 257
 294 1548 l 257
645 832 m 257
 1029 64 l 257
 1021 1559 l 257
 645 832 l 257
EndSplineSet
EndChar

StartChar: A
Encoding: 65 65 1
GlifName: A_
Width: 1200
VWidth: 0
Flags: W
LayerCount: 2
Fore
SplineSet
128 16 m 257
 208 16 l 257
 199 1537 l 257
 116 1541 l 257
 128 16 l 257
175 1443 m 257
 1077 1441 l 257
 1071 1541 l 257
 175 1537 l 257
 175 1443 l 257
169 968 m 257
 166 871 l 257
 1092 875 l 257
 1092 968 l 257
 169 968 l 257
1052 2 m 257
 1137 5 l 257
 1135 1542 l 257
 1051 1545 l 257
 1052 2 l 257
EndSplineSet
PickledDataWithLists: "(dp0
."
EndChar

StartChar: B
Encoding: 66 66 2
GlifName: B_
Width: 1200
VWidth: 0
Flags: W
LayerCount: 2
Fore
SplineSet
175 2 m 257
 289 2 l 257
 260 1533 l 257
 161 1534 l 257
 175 2 l 257
217 1397 m 257
 1120 1117 l 257
 1136 1216 l 257
 254 1533 l 257
 217 1397 l 257
261 887 m 257
 1133 1097 l 257
 1133 1208 l 257
 261 1030 l 257
 261 887 l 257
254 136 m 257
 298 4 l 257
 1130 434 l 257
 1068 503 l 257
 254 136 l 257
231 718 m 257
 1146 441 l 257
 1142 597 l 257
 262 843 l 257
 231 718 l 257
EndSplineSet
PickledDataWithLists: "(dp0
."
EndChar

StartChar: C
Encoding: 67 67 3
GlifName: C_
Width: 1030
VWidth: 0
Flags: W
LayerCount: 2
Fore
SplineSet
60 1533 m 257
 153 1533 l 257
 154 15 l 257
 62 15 l 257
 60 1533 l 257
140 1531 m 257
 942 1534 l 257
 944 1459 l 257
 140 1458 l 257
 140 1531 l 257
134 79 m 257
 940 75 l 257
 943 6 l 257
 134 8 l 257
 134 79 l 257
EndSplineSet
PickledDataWithLists: "(dp0
."
EndChar

StartChar: D
Encoding: 68 68 4
GlifName: D_
Width: 1024
VWidth: 0
Flags: W
LayerCount: 2
Fore
SplineSet
116 1535 m 257
 128 1 l 257
 238 7 l 257
 238 1535 l 257
 116 1535 l 257
232 1532 m 257
 190 1444 l 257
 944 915 l 257
 935 1026 l 257
 232 1532 l 257
168 88 m 257
 237 4 l 257
 954 923 l 257
 949 1025 l 257
 168 88 l 257
EndSplineSet
PickledDataWithLists: "(dp0
."
EndChar

StartChar: E
Encoding: 69 69 5
GlifName: E_
Width: 1200
VWidth: 0
Flags: W
LayerCount: 2
Fore
SplineSet
210 1537 m 257
 213 3 l 257
 294 3 l 257
 288 1535 l 257
 210 1537 l 257
288 1536 m 257
 295 1474 l 257
 1009 1473 l 257
 1007 1536 l 257
 288 1536 l 257
277 61 m 257
 278 2 l 257
 1027 1 l 257
 1023 61 l 257
 277 61 l 257
277 888 m 257
 277 798 l 257
 776 798 l 257
 776 888 l 257
 277 888 l 257
EndSplineSet
PickledDataWithLists: "(dp0
Vxyz.fontra.layer-names
p1
(dp2
VSamaano-Thin/public.default
p3
VSamaano-Bold/public.default
p4
ss."
EndChar

StartChar: F
Encoding: 70 70 6
GlifName: F_
Width: 1200
VWidth: 0
Flags: W
LayerCount: 2
Fore
SplineSet
204 1554 m 257
 204 3 l 257
 290 3 l 257
 283 1554 l 257
 204 1554 l 257
263 1554 m 257
 264 1478 l 257
 1018 1485 l 257
 1017 1554 l 257
 263 1554 l 257
254 880 m 257
 255 810 l 257
 845 806 l 257
 835 878 l 257
 254 880 l 257
EndSplineSet
PickledDataWithLists: "(dp0
Vxyz.fontra.layer-names
p1
(dp2
VSamaano-Thin/public.default
p3
VSamaano-Bold/public.default
p4
ss."
EndChar

StartChar: G
Encoding: 71 71 7
GlifName: G_
Width: 1024
VWidth: 0
Flags: W
LayerCount: 2
Fore
SplineSet
110 1529 m 257
 110 -4 l 257
 191 -4 l 257
 191 1529 l 257
 110 1529 l 257
168 1529 m 257
 168 1438 l 257
 868 1438 l 257
 868 1529 l 257
 168 1529 l 257
141 98 m 257
 141 0 l 257
 904 0 l 257
 904 98 l 257
 141 98 l 257
809 561 m 257
 809 18 l 257
 904 18 l 257
 904 561 l 257
 809 561 l 257
EndSplineSet
PickledDataWithLists: "(dp0
."
EndChar

StartChar: H
Encoding: 72 72 8
GlifName: H_
Width: 1024
VWidth: 0
Flags: W
LayerCount: 2
Fore
SplineSet
89 1540 m 257
 89 1 l 257
 191 1 l 257
 191 1540 l 257
 89 1540 l 257
779 1540 m 257
 779 1 l 257
 885 1 l 257
 885 1540 l 257
 779 1540 l 257
178 923 m 257
 178 836 l 257
 804 836 l 257
 804 923 l 257
 178 923 l 257
EndSplineSet
PickledDataWithLists: "(dp0
."
EndChar

StartChar: I
Encoding: 73 73 9
GlifName: I_
Width: 1024
VWidth: 0
Flags: W
LayerCount: 2
Fore
SplineSet
144 1537 m 257
 144 1450 l 257
 845 1450 l 257
 845 1537 l 257
 144 1537 l 257
409 1468 m 257
 409 84 l 257
 527 84 l 257
 527 1468 l 257
 409 1468 l 257
124 111 m 257
 124 6 l 257
 880 6 l 257
 880 111 l 257
 124 111 l 257
EndSplineSet
PickledDataWithLists: "(dp0
."
EndChar

StartChar: J
Encoding: 74 74 10
GlifName: J_
Width: 1024
VWidth: 0
Flags: W
LayerCount: 2
Fore
SplineSet
778 1527 m 257
 778 1 l 257
 900 1 l 257
 900 1527 l 257
 778 1527 l 257
126 134 m 257
 126 0 l 257
 807 0 l 257
 807 134 l 257
 126 134 l 257
125 503 m 257
 125 54 l 257
 247 52 l 257
 247 503 l 257
 125 503 l 257
EndSplineSet
PickledDataWithLists: "(dp0
."
EndChar

StartChar: K
Encoding: 75 75 11
GlifName: K_
Width: 1024
VWidth: 0
Flags: W
LayerCount: 2
Fore
SplineSet
118 1535 m 257
 118 5 l 257
 204 5 l 257
 204 1535 l 257
 118 1535 l 257
119 951 m 257
 204 928 l 257
 759 1538 l 257
 650 1536 l 257
 119 951 l 257
204 927 m 257
 156 844 l 257
 748 3 l 257
 847 8 l 257
 204 927 l 257
EndSplineSet
PickledDataWithLists: "(dp0
."
EndChar

StartChar: L
Encoding: 76 76 12
GlifName: L_
Width: 1024
VWidth: 0
Flags: W
LayerCount: 2
Fore
SplineSet
128 1535 m 257
 128 3 l 257
 237 3 l 257
 237 1535 l 257
 128 1535 l 257
143 89 m 257
 149 3 l 257
 893 3 l 257
 888 89 l 257
 143 89 l 257
EndSplineSet
PickledDataWithLists: "(dp0
."
EndChar

StartChar: M
Encoding: 77 77 13
GlifName: M_
Width: 1024
VWidth: 0
Flags: W
LayerCount: 2
Fore
SplineSet
101 1546 m 257
 101 2 l 257
 173 2 l 257
 173 1546 l 257
 101 1546 l 257
862 1541 m 257
 862 -3 l 257
 924 -3 l 257
 924 1541 l 257
 862 1541 l 257
103 1544 m 257
 476 1033 l 257
 545 1033 l 257
 174 1551 l 257
 103 1544 l 257
857 1541 m 257
 477 1034 l 257
 545 1033 l 257
 927 1542 l 257
 857 1541 l 257
EndSplineSet
PickledDataWithLists: "(dp0
."
EndChar

StartChar: N
Encoding: 78 78 14
GlifName: N_
Width: 1024
VWidth: 0
Flags: W
LayerCount: 2
Fore
SplineSet
97 1537 m 257
 97 -1 l 257
 186 0 l 257
 183 1536 l 257
 97 1537 l 257
849 1541 m 257
 849 0 l 257
 926 0 l 257
 925 1541 l 257
 849 1541 l 257
97 1537 m 257
 849 0 l 257
 926 0 l 257
 186 1535 l 257
 97 1537 l 257
EndSplineSet
PickledDataWithLists: "(dp0
."
EndChar

StartChar: O
Encoding: 79 79 15
GlifName: O_
Width: 1024
VWidth: 0
Flags: W
LayerCount: 2
Fore
SplineSet
110 1554 m 257
 110 2 l 257
 189 2 l 257
 189 1554 l 257
 110 1554 l 257
820 1551 m 257
 820 -2 l 257
 910 -2 l 257
 910 1551 l 257
 820 1551 l 257
174 1552 m 257
 174 1464 l 257
 843 1464 l 257
 843 1552 l 257
 174 1552 l 257
150 108 m 257
 150 3 l 257
 832 3 l 257
 832 108 l 257
 150 108 l 257
EndSplineSet
EndChar

StartChar: P
Encoding: 80 80 16
GlifName: P_
Width: 1024
VWidth: 0
Flags: W
LayerCount: 2
Fore
SplineSet
112 1535 m 257
 112 -1 l 257
 200 -1 l 257
 200 1535 l 257
 112 1535 l 257
191 1536 m 257
 191 1456 l 257
 847 1456 l 257
 847 1536 l 257
 191 1536 l 257
795 1536 m 257
 795 872 l 257
 874 872 l 257
 874 1536 l 257
 795 1536 l 257
172 929 m 257
 175 862 l 257
 862 867 l 257
 859 934 l 257
 172 929 l 257
EndSplineSet
PickledDataWithLists: "(dp0
Vxyz.fontra.layer-names
p1
(dp2
VSamaano-Thin/public.default
p3
Vdefault
p4
ss."
EndChar

StartChar: Q
Encoding: 81 81 17
GlifName: Q_
Width: 1024
VWidth: 0
Flags: W
LayerCount: 2
Fore
SplineSet
110 1554 m 257
 112 0 l 257
 187 0 l 257
 185 1554 l 257
 110 1554 l 257
849 1554 m 257
 849 0 l 257
 911 0 l 257
 911 1554 l 257
 849 1554 l 257
174 1554 m 257
 174 1496 l 257
 861 1496 l 257
 861 1554 l 257
 174 1554 l 257
150 62 m 257
 150 0 l 257
 862 0 l 257
 862 62 l 257
 150 62 l 257
614 13 m 257
 721 -204 l 257
 782 -165 l 257
 663 52 l 257
 614 13 l 257
EndSplineSet
PickledDataWithLists: "(dp0
Vxyz.fontra.layer-names
p1
(dp2
VSamaano-Thin/public.default
p3
Vdefault
p4
ss."
EndChar

StartChar: R
Encoding: 82 82 18
GlifName: R_
Width: 1024
VWidth: 0
Flags: W
LayerCount: 2
Fore
SplineSet
112 1535 m 257
 112 -1 l 257
 194 -1 l 257
 194 1535 l 257
 112 1535 l 257
191 1536 m 257
 191 1461 l 257
 847 1461 l 257
 847 1536 l 257
 191 1536 l 257
787 1536 m 257
 787 872 l 257
 874 872 l 257
 874 1536 l 257
 787 1536 l 257
175 931 m 257
 175 868 l 257
 862 868 l 257
 862 931 l 257
 175 931 l 257
341 906 m 257
 782 1 l 257
 893 1 l 257
 463 875 l 257
 341 906 l 257
EndSplineSet
PickledDataWithLists: "(dp0
Vxyz.fontra.layer-names
p1
(dp2
VSamaano-Thin/public.default
p3
Vdefault
p4
ss."
EndChar

StartChar: S
Encoding: 83 83 19
GlifName: S_
Width: 1024
VWidth: 0
Flags: W
LayerCount: 2
Fore
SplineSet
146 1539 m 257
 146 1435 l 257
 744 1435 l 257
 744 1539 l 257
 146 1539 l 257
146 1542 m 257
 146 1028 l 257
 229 1028 l 257
 229 1542 l 257
 146 1542 l 257
174 67 m 257
 174 0 l 257
 882 0 l 257
 882 67 l 257
 174 67 l 257
847 0 m 257
 918 0 l 257
 918 355 l 257
 847 355 l 257
 847 0 l 257
146 1027 m 257
 848 355 l 257
 918 355 l 257
 230 1027 l 257
 146 1027 l 257
EndSplineSet
PickledDataWithLists: "(dp0
Vxyz.fontra.layer-names
p1
(dp2
VSamaano-Thin/public.default
p3
Vdefault
p4
ss."
EndChar

StartChar: T
Encoding: 84 84 20
GlifName: T_
Width: 1024
VWidth: 0
Flags: W
LayerCount: 2
Fore
SplineSet
118 1549 m 257
 118 1440 l 257
 892 1440 l 257
 892 1549 l 257
 118 1549 l 257
438 1442 m 257
 438 12 l 257
 559 12 l 257
 559 1442 l 257
 438 1442 l 257
EndSplineSet
PickledDataWithLists: "(dp0
Vxyz.fontra.layer-names
p1
(dp2
VSamaano-Thin/public.default
p3
Vdefault
p4
ss."
EndChar

StartChar: U
Encoding: 85 85 21
GlifName: U_
Width: 1024
VWidth: 0
Flags: W
LayerCount: 2
Fore
SplineSet
157 1536 m 257
 157 0 l 257
 252 0 l 257
 254 1536 l 257
 157 1536 l 257
770 1535 m 257
 770 0 l 257
 868 0 l 257
 867 1535 l 257
 770 1535 l 257
204 82 m 257
 205 0 l 257
 824 0 l 257
 824 82 l 257
 204 82 l 257
EndSplineSet
PickledDataWithLists: "(dp0
Vxyz.fontra.layer-names
p1
(dp2
VSamaano-Thin/public.default
p3
Vdefault
p4
ss."
EndChar

StartChar: V
Encoding: 86 86 22
GlifName: V_
Width: 1024
VWidth: 0
Flags: W
LayerCount: 2
Fore
SplineSet
87 1551 m 257
 477 1 l 257
 573 0 l 257
 151 1553 l 257
 87 1551 l 257
829 1549 m 257
 477 1 l 257
 573 0 l 257
 898 1554 l 257
 829 1549 l 257
EndSplineSet
PickledDataWithLists: "(dp0
Vxyz.fontra.layer-names
p1
(dp2
VSamaano-Thin/public.default
p3
Vdefault
p4
ss."
EndChar

StartChar: W
Encoding: 87 87 23
GlifName: W_
Width: 1024
VWidth: 0
Flags: W
LayerCount: 2
Fore
SplineSet
104 1546 m 257
 104 1 l 257
 204 0 l 257
 203 1546 l 257
 104 1546 l 257
828 1533 m 257
 828 12 l 257
 922 12 l 257
 922 1533 l 257
 828 1533 l 257
489 1028 m 257
 490 1 l 257
 600 1 l 257
 601 1028 l 257
 489 1028 l 257
103 121 m 257
 105 0 l 257
 922 0 l 257
 922 121 l 257
 103 121 l 257
EndSplineSet
PickledDataWithLists: "(dp0
Vxyz.fontra.layer-names
p1
(dp2
VSamaano-Thin/public.default
p3
Vdefault
p4
ss."
EndChar

StartChar: X
Encoding: 88 88 24
GlifName: X_
Width: 1200
VWidth: 0
Flags: W
LayerCount: 2
Fore
SplineSet
124 1554 m 257
 195 1554 l 257
 1039 0 l 257
 966 -2 l 257
 124 1554 l 257
140 0 m 257
 868 1554 l 257
 943 1554 l 257
 197 2 l 257
 140 0 l 257
EndSplineSet
PickledDataWithLists: "(dp0
Vxyz.fontra.layer-names
p1
(dp2
VSamaano-Thin/public.default
p3
VSamaano-Bold/public.default
p4
ss."
EndChar

StartChar: Y
Encoding: 89 89 25
GlifName: Y_
Width: 1024
VWidth: 0
Flags: W
LayerCount: 2
Fore
SplineSet
452 895 m 257
 452 -2 l 257
 568 -2 l 257
 568 895 l 257
 452 895 l 257
182 1547 m 257
 182 859 l 257
 247 859 l 257
 247 1547 l 257
 182 1547 l 257
777 1536 m 257
 777 859 l 257
 864 859 l 257
 864 1536 l 257
 777 1536 l 257
228 945 m 257
 228 859 l 257
 784 859 l 257
 784 945 l 257
 228 945 l 257
EndSplineSet
PickledDataWithLists: "(dp0
Vxyz.fontra.layer-names
p1
(dp2
VSamaano-Thin/public.default
p3
Vdefault
p4
ss."
EndChar

StartChar: Z
Encoding: 90 90 26
GlifName: Z_
Width: 1024
VWidth: 0
Flags: W
LayerCount: 2
Fore
SplineSet
98 1550 m 257
 98 1455 l 257
 926 1455 l 257
 926 1550 l 257
 98 1550 l 257
99 90 m 257
 99 1 l 257
 926 1 l 257
 926 90 l 257
 99 90 l 257
816 1455 m 257
 98 91 l 257
 206 90 l 257
 926 1455 l 257
 816 1455 l 257
EndSplineSet
PickledDataWithLists: "(dp0
Vxyz.fontra.layer-names
p1
(dp2
VSamaano-Thin/public.default
p3
Vdefault
p4
ss."
EndChar

StartChar: a
Encoding: 97 97 27
GlifName: a
Width: 1024
VWidth: 0
Flags: W
LayerCount: 2
Fore
SplineSet
180 1021 m 257
 180 955 l 257
 833 957 l 257
 829 1024 l 257
 180 1021 l 257
791 1025 m 257
 812 1 l 257
 872 1 l 257
 868 1025 l 257
 791 1025 l 257
183 602 m 257
 187 539 l 257
 811 538 l 257
 807 600 l 257
 183 602 l 257
184 575 m 257
 184 -2 l 257
 270 -1 l 257
 255 577 l 257
 184 575 l 257
193 64 m 257
 192 -2 l 257
 857 -1 l 257
 857 74 l 257
 193 64 l 257
EndSplineSet
PickledDataWithLists: "(dp0
."
EndChar

StartChar: ampersand
Encoding: 38 38 28
GlifName: ampersand
Width: 1024
VWidth: 0
Flags: W
LayerCount: 2
Fore
SplineSet
277 1536 m 257
 795 43 l 257
 871 56 l 257
 355 1534 l 257
 277 1536 l 257
820 1467 m 257
 820 1536 l 257
 355 1536 l 257
 355 1467 l 257
 820 1467 l 257
762 1485 m 257
 762 1006 l 257
 820 1006 l 257
 820 1485 l 257
 762 1485 l 257
124 1045 m 257
 124 985 l 257
 820 985 l 257
 820 1045 l 257
 124 1045 l 257
124 1045 m 257
 124 24 l 257
 215 24 l 257
 215 1045 l 257
 124 1045 l 257
124 71 m 257
 124 6 l 257
 933 6 l 257
 933 71 l 257
 124 71 l 257
EndSplineSet
PickledDataWithLists: "(dp0
Vxyz.fontra.layer-names
p1
(dp2
VSamaano-Thin/public.default
p3
Vdefault
p4
ss."
EndChar

StartChar: asciicircum
Encoding: 94 94 29
GlifName: asciicircum
Width: 1024
VWidth: 0
Flags: W
LayerCount: 2
Fore
SplineSet
530 1027 m 257
 458 1025 l 257
 193 407 l 257
 248 373 l 257
 530 1027 l 257
464 1023 m 257
 787 364 l 257
 870 400 l 257
 537 1030 l 257
 464 1023 l 257
EndSplineSet
PickledDataWithLists: "(dp0
."
EndChar

StartChar: asterisk
Encoding: 42 42 31
GlifName: asterisk
Width: 1024
VWidth: 0
Flags: W
LayerCount: 2
Fore
SplineSet
481 1292 m 257
 481 289 l 257
 588 289 l 257
 580 1297 l 257
 481 1292 l 257
135 1153 m 257
 858 424 l 257
 926 496 l 257
 194 1222 l 257
 135 1153 l 257
835 1200 m 257
 87 449 l 257
 142 399 l 257
 887 1134 l 257
 835 1200 l 257
EndSplineSet
PickledDataWithLists: "(dp0
Vxyz.fontra.layer-names
p1
(dp2
VSamaano-Thin/public.default
p3
Vdefault
p4
ss."
EndChar

StartChar: at
Encoding: 64 64 32
GlifName: at
Width: 1200
VWidth: 0
Flags: W
LayerCount: 2
Fore
SplineSet
219 1024 m 257
 220 956 l 257
 1113 956 l 257
 1117 1024 l 257
 219 1024 l 257
878 598 m 257
 877 -1 l 257
 947 0 l 257
 945 598 l 257
 878 598 l 257
457 602 m 257
 459 551 l 257
 882 551 l 257
 882 601 l 257
 457 602 l 257
454 589 m 257
 454 12 l 257
 508 12 l 257
 508 589 l 257
 454 589 l 257
452 75 m 257
 453 -2 l 257
 946 -1 l 257
 946 76 l 257
 452 75 l 257
166 1024 m 257
 166 -223 l 257
 232 -223 l 257
 232 1024 l 257
 166 1024 l 257
164 -179 m 257
 164 -258 l 257
 1112 -258 l 257
 1112 -179 l 257
 164 -179 l 257
1050 1033 m 257
 1050 0 l 257
 1135 0 l 257
 1135 1033 l 257
 1050 1033 l 257
892 76 m 257
 892 0 l 257
 1082 0 l 257
 1082 76 l 257
 892 76 l 257
EndSplineSet
PickledDataWithLists: "(dp0
."
EndChar

StartChar: b
Encoding: 98 98 33
GlifName: b
Width: 1024
VWidth: 0
Flags: W
LayerCount: 2
Fore
SplineSet
139 1536 m 257
 139 0 l 257
 256 0 l 257
 256 1536 l 257
 139 1536 l 257
236 1033 m 257
 236 936 l 257
 846 936 l 257
 846 1033 l 257
 236 1033 l 257
812 1033 m 257
 812 0 l 257
 893 0 l 257
 893 1033 l 257
 812 1033 l 257
242 86 m 257
 242 1 l 257
 814 1 l 257
 814 86 l 257
 242 86 l 257
EndSplineSet
PickledDataWithLists: "(dp0
."
EndChar

StartChar: backslash
Encoding: 92 92 34
GlifName: backslash
Width: 1024
VWidth: 0
Flags: W
LayerCount: 2
Fore
SplineSet
236 1550 m 257
 792 -2 l 257
 870 0 l 257
 319 1551 l 257
 236 1550 l 257
EndSplineSet
PickledDataWithLists: "(dp0
Vxyz.fontra.layer-names
p1
(dp2
VSamaano-Thin/public.default
p3
Vdefault
p4
ss."
EndChar

StartChar: bar
Encoding: 124 124 35
GlifName: bar
Width: 1024
VWidth: 0
Flags: W
LayerCount: 2
Fore
SplineSet
525 1435 m 257
 525 -90 l 257
 606 -90 l 257
 606 1435 l 257
 525 1435 l 257
EndSplineSet
PickledDataWithLists: "(dp0
Vxyz.fontra.layer-names
p1
(dp2
VSamaano-Thin/public.default
p3
Vdefault
p4
ss."
EndChar

StartChar: braceleft
Encoding: 123 123 36
GlifName: braceleft
Width: 1024
VWidth: 0
Flags: W
LayerCount: 2
Fore
SplineSet
421 1460 m 257
 421 838 l 257
 495 838 l 257
 495 1460 l 257
 421 1460 l 257
433 424 m 257
 433 -161 l 257
 519 -161 l 257
 519 424 l 257
 433 424 l 257
132 690 m 257
 132 630 l 257
 497 836 l 257
 421 838 l 257
 132 690 l 257
132 690 m 257
 132 630 l 257
 431 423 l 257
 517 425 l 257
 132 690 l 257
441 1463 m 257
 447 1389 l 257
 697 1431 l 257
 701 1460 l 257
 441 1463 l 257
439 -79 m 257
 433 -160 l 257
 708 -163 l 257
 709 -150 l 257
 439 -79 l 257
EndSplineSet
PickledDataWithLists: "(dp0
Vxyz.fontra.layer-names
p1
(dp2
VSamaano-Thin/public.default
p3
VSamaano-Bold/public.default
p4
ss."
EndChar

StartChar: braceright
Encoding: 125 125 37
GlifName: braceright
Width: 1024
VWidth: 0
Flags: W
LayerCount: 2
Fore
SplineSet
420 1460 m 257
 349 1460 l 257
 349 838 l 257
 420 838 l 257
 420 1460 l 257
408 424 m 257
 346 424 l 257
 346 -161 l 257
 408 -161 l 257
 408 424 l 257
709 690 m 257
 420 838 l 257
 349 835 l 257
 709 630 l 257
 709 690 l 257
709 690 m 257
 345 425 l 257
 410 423 l 257
 709 630 l 257
 709 690 l 257
412 1460 m 257
 140 1460 l 257
 144 1431 l 257
 415 1373 l 257
 412 1460 l 257
411 -83 m 257
 132 -150 l 257
 133 -163 l 257
 408 -160 l 257
 411 -83 l 257
EndSplineSet
PickledDataWithLists: "(dp0
Vxyz.fontra.layer-names
p1
(dp2
VSamaano-Thin/public.default
p3
VSamaano-Bold/public.default
p4
ss."
EndChar

StartChar: bracketleft
Encoding: 91 91 38
GlifName: bracketleft
Width: 1024
VWidth: 0
Flags: W
LayerCount: 2
Fore
SplineSet
162 1542 m 257
 164 -242 l 257
 221 -242 l 257
 219 1542 l 257
 162 1542 l 257
216 1543 m 257
 216 1481 l 257
 425 1481 l 257
 425 1543 l 257
 216 1543 l 257
198 -168 m 257
 198 -242 l 257
 430 -242 l 257
 430 -168 l 257
 198 -168 l 257
EndSplineSet
PickledDataWithLists: "(dp0
Vxyz.fontra.layer-names
p1
(dp2
VSamaano-Thin/public.default
p3
Vdefault
p4
ss."
EndChar

StartChar: bracketright
Encoding: 93 93 39
GlifName: bracketright
Width: 1024
VWidth: 0
Flags: W
LayerCount: 2
Fore
SplineSet
428 1542 m 257
 430 -242 l 257
 493 -242 l 257
 490 1542 l 257
 428 1542 l 257
216 1543 m 257
 216 1478 l 257
 444 1478 l 257
 444 1543 l 257
 216 1543 l 257
216 -165 m 257
 216 -242 l 257
 455 -242 l 257
 455 -165 l 257
 216 -165 l 257
EndSplineSet
PickledDataWithLists: "(dp0
Vxyz.fontra.layer-names
p1
(dp2
VSamaano-Thin/public.default
p3
Vdefault
p4
ss."
EndChar

StartChar: c
Encoding: 99 99 40
GlifName: c
Width: 1024
VWidth: 0
Flags: W
LayerCount: 2
Fore
SplineSet
201 1026 m 257
 203 951 l 257
 895 951 l 257
 898 1027 l 257
 201 1026 l 257
204 984 m 257
 204 -1 l 257
 282 0 l 257
 281 984 l 257
 204 984 l 257
252 71 m 257
 252 1 l 257
 892 0 l 257
 892 72 l 257
 252 71 l 257
EndSplineSet
PickledDataWithLists: "(dp0
."
EndChar

StartChar: colon
Encoding: 58 58 41
GlifName: colon
Width: 1024
VWidth: 0
Flags: W
LayerCount: 2
Fore
SplineSet
508 164 m 257
 508 7 l 257
 645 7 l 257
 645 164 l 257
 508 164 l 257
508 553 m 257
 508 396 l 257
 645 396 l 257
 645 553 l 257
 508 553 l 257
EndSplineSet
PickledDataWithLists: "(dp0
Vxyz.fontra.layer-names
p1
(dp2
VSamaano-Thin/public.default
p3
Vdefault
p4
ss."
EndChar

StartChar: comma
Encoding: 44 44 42
GlifName: comma
Width: 1024
VWidth: 0
Flags: W
LayerCount: 2
Fore
SplineSet
508 165 m 257
 508 8 l 257
 645 8 l 257
 645 165 l 257
 508 165 l 257
592 135 m 257
 551 -99 l 257
 600 -148 l 257
 643 26 l 257
 592 135 l 257
EndSplineSet
PickledDataWithLists: "(dp0
Vxyz.fontra.layer-names
p1
(dp2
VSamaano-Thin/public.default
p3
Vdefault
p4
ss."
EndChar

StartChar: d
Encoding: 100 100 43
GlifName: d
Width: 1024
VWidth: 0
Flags: W
LayerCount: 2
Fore
SplineSet
834 1527 m 257
 834 -1 l 257
 926 -1 l 257
 926 1527 l 257
 834 1527 l 257
261 1023 m 257
 266 914 l 257
 863 914 l 257
 863 1023 l 257
 261 1023 l 257
166 1023 m 257
 165 0 l 257
 287 1 l 257
 286 1027 l 257
 166 1023 l 257
261 84 m 257
 261 1 l 257
 878 -6 l 257
 878 84 l 257
 261 84 l 257
EndSplineSet
PickledDataWithLists: "(dp0
."
EndChar

StartChar: dollar
Encoding: 36 36 44
GlifName: dollar
Width: 1024
VWidth: 0
Flags: W
LayerCount: 2
Fore
SplineSet
146 1539 m 257
 146 1457 l 257
 744 1457 l 257
 744 1539 l 257
 146 1539 l 257
146 1542 m 257
 146 1028 l 257
 230 1028 l 257
 230 1542 l 257
 146 1542 l 257
174 69 m 257
 174 0 l 257
 882 0 l 257
 882 69 l 257
 174 69 l 257
838 1 m 257
 918 1 l 257
 918 355 l 257
 838 355 l 257
 838 1 l 257
146 1028 m 257
 837 355 l 257
 918 355 l 257
 230 1028 l 257
 146 1028 l 257
441 1636 m 257
 441 -215 l 257
 511 -215 l 257
 511 1636 l 257
 441 1636 l 257
EndSplineSet
PickledDataWithLists: "(dp0
Vxyz.fontra.layer-names
p1
(dp2
VSamaano-Thin/public.default
p3
Vdefault
p4
ss."
EndChar

StartChar: e
Encoding: 101 101 45
GlifName: e
Width: 1024
VWidth: 0
Flags: W
LayerCount: 2
Fore
SplineSet
257 1025 m 257
 266 932 l 257
 895 936 l 257
 892 1028 l 257
 257 1025 l 257
206 1024 m 257
 204 -1 l 257
 322 0 l 257
 311 1022 l 257
 206 1024 l 257
310 88 m 257
 310 2 l 257
 892 0 l 257
 892 90 l 257
 310 88 l 257
278 546 m 257
 286 445 l 257
 864 446 l 257
 863 547 l 257
 278 546 l 257
822 995 m 257
 820 445 l 257
 899 445 l 257
 896 993 l 257
 822 995 l 257
EndSplineSet
PickledDataWithLists: "(dp0
."
EndChar

StartChar: eight
Encoding: 56 56 46
GlifName: eight
Width: 1200
VWidth: 0
Flags: W
LayerCount: 2
Fore
SplineSet
98 0 m 257
 98 860 l 257
 194 860 l 257
 194 0 l 257
 98 0 l 257
98 935 m 257
 98 1640 l 257
 200 1640 l 257
 200 935 l 257
 98 935 l 257
210 0 m 257
 204 105 l 257
 964 90 l 257
 960 0 l 257
 210 0 l 257
230 1520 m 257
 230 1630 l 257
 970 1640 l 257
 970 1520 l 257
 230 1520 l 257
240 810 m 257
 240 935 l 257
 960 935 l 257
 960 810 l 257
 240 810 l 257
994 0 m 257
 994 845 l 257
 1102 845 l 257
 1102 0 l 257
 994 0 l 257
1010 935 m 257
 1010 1640 l 257
 1102 1640 l 257
 1102 935 l 257
 1010 935 l 257
EndSplineSet
EndChar

StartChar: equal
Encoding: 61 61 47
GlifName: equal
Width: 1024
VWidth: 0
Flags: W
LayerCount: 2
Fore
SplineSet
130 824 m 257
 130 724 l 257
 947 724 l 257
 947 824 l 257
 130 824 l 257
130 540 m 257
 130 450 l 257
 947 450 l 257
 947 540 l 257
 130 540 l 257
EndSplineSet
PickledDataWithLists: "(dp0
Vxyz.fontra.layer-names
p1
(dp2
VSamaano-Thin/public.default
p3
Vdefault
p4
ss."
EndChar

StartChar: exclam
Encoding: 33 33 48
GlifName: exclam
Width: 1200
VWidth: 0
Flags: W
LayerCount: 2
Fore
SplineSet
571 276 m 257
 638 276 l 257
 638 374 l 257
 571 374 l 257
 571 276 l 257
569 611 m 257
 641 611 l 257
 641 1629 l 257
 569 1629 l 257
 569 611 l 257
EndSplineSet
PickledDataWithLists: "(dp0
Vxyz.fontra.layer-names
p1
(dp2
VSamaano-Thin/public.default
p3
VSamaano-Bold/public.default
p4
ss."
EndChar

StartChar: f
Encoding: 102 102 49
GlifName: f
Width: 1024
VWidth: 0
Flags: W
LayerCount: 2
Fore
SplineSet
419 1013 m 257
 419 -430 l 257
 547 -407 l 257
 547 1032 l 257
 419 1013 l 257
476 1031 m 257
 476 876 l 257
 876 876 l 257
 876 1031 l 257
 476 1031 l 257
269 551 m 257
 269 402 l 257
 748 402 l 257
 748 551 l 257
 269 551 l 257
EndSplineSet
EndChar

StartChar: five
Encoding: 53 53 50
GlifName: five
Width: 1200
VWidth: 0
Flags: W
LayerCount: 2
Fore
SplineSet
98 935 m 257
 98 1640 l 257
 200 1640 l 257
 200 935 l 257
 98 935 l 257
204 105 m 257
 964 90 l 257
 960 0 l 257
 210 0 l 257
 204 105 l 257
230 1520 m 257
 230 1630 l 257
 970 1640 l 257
 970 1520 l 257
 230 1520 l 257
240 810 m 257
 240 935 l 257
 960 935 l 257
 960 810 l 257
 240 810 l 257
994 0 m 257
 994 845 l 257
 1102 845 l 257
 1102 0 l 257
 994 0 l 257
EndSplineSet
EndChar

StartChar: four
Encoding: 52 52 51
GlifName: four
Width: 1200
VWidth: 0
Flags: W
LayerCount: 2
Fore
SplineSet
98 935 m 257
 98 1640 l 257
 200 1640 l 257
 200 935 l 257
 98 935 l 257
240 810 m 257
 240 935 l 257
 960 935 l 257
 960 810 l 257
 240 810 l 257
994 0 m 257
 994 845 l 257
 1102 845 l 257
 1102 0 l 257
 994 0 l 257
1010 935 m 257
 1010 1640 l 257
 1102 1640 l 257
 1102 935 l 257
 1010 935 l 257
EndSplineSet
EndChar

StartChar: g
Encoding: 103 103 52
GlifName: g
Width: 1024
VWidth: 0
Flags: W
LayerCount: 2
Fore
SplineSet
297 1023 m 257
 297 0 l 257
 361 0 l 257
 361 1023 l 257
 297 1023 l 257
337 1021 m 257
 337 970 l 257
 853 970 l 257
 853 1021 l 257
 337 1021 l 257
811 1024 m 257
 811 -411 l 257
 875 -411 l 257
 875 1024 l 257
 811 1024 l 257
360 58 m 257
 360 -1 l 257
 817 -1 l 257
 817 58 l 257
 360 58 l 257
337 -362 m 257
 337 -413 l 257
 826 -413 l 257
 826 -362 l 257
 337 -362 l 257
EndSplineSet
PickledDataWithLists: "(dp0
."
EndChar

StartChar: grave
Encoding: 96 96 53
GlifName: grave
Width: 1024
VWidth: 0
Flags: W
LayerCount: 2
Fore
SplineSet
320 1286 m 257
 405 1057 l 257
 493 1112 l 257
 401 1340 l 257
 320 1286 l 257
EndSplineSet
PickledDataWithLists: "(dp0
."
EndChar

StartChar: greater
Encoding: 62 62 54
GlifName: greater
Width: 1024
VWidth: 0
Flags: W
LayerCount: 2
Fore
SplineSet
949 632 m 257
 133 1013 l 257
 132 952 l 257
 949 569 l 257
 949 632 l 257
949 632 m 257
 131 186 l 257
 135 122 l 257
 949 569 l 257
 949 632 l 257
EndSplineSet
PickledDataWithLists: "(dp0
Vxyz.fontra.layer-names
p1
(dp2
VSamaano-Thin/public.default
p3
Vdefault
p4
ss."
EndChar

StartChar: h
Encoding: 104 104 55
GlifName: h
Width: 1024
VWidth: 0
Flags: W
LayerCount: 2
Fore
SplineSet
147 1525 m 257
 147 6 l 257
 238 6 l 257
 238 1525 l 257
 147 1525 l 257
227 1028 m 257
 227 948 l 257
 776 948 l 257
 776 1028 l 257
 227 1028 l 257
740 1028 m 257
 740 1 l 257
 823 1 l 257
 823 1028 l 257
 740 1028 l 257
EndSplineSet
PickledDataWithLists: "(dp0
."
EndChar

StartChar: hyphen
Encoding: 45 45 56
GlifName: hyphen
Width: 1024
VWidth: 0
Flags: W
LayerCount: 2
Fore
SplineSet
99 793 m 257
 99 695 l 257
 925 695 l 257
 925 793 l 257
 99 793 l 257
EndSplineSet
PickledDataWithLists: "(dp0
Vxyz.fontra.layer-names
p1
(dp2
VSamaano-Thin/public.default
p3
Vdefault
p4
ss."
EndChar

StartChar: i
Encoding: 105 105 57
GlifName: i
Width: 1024
VWidth: 0
Flags: W
LayerCount: 2
Fore
SplineSet
494 1018 m 257
 494 72 l 257
 606 72 l 257
 606 1018 l 257
 494 1018 l 257
177 101 m 257
 177 6 l 257
 919 6 l 257
 919 101 l 257
 177 101 l 257
360 1292 m 257
 360 1174 l 257
 473 1174 l 257
 473 1292 l 257
 360 1292 l 257
227 1018 m 257
 227 921 l 257
 563 921 l 257
 563 1018 l 257
 227 1018 l 257
EndSplineSet
PickledDataWithLists: "(dp0
."
EndChar

StartChar: j
Encoding: 106 106 58
GlifName: j
Width: 1024
VWidth: 0
Flags: W
LayerCount: 2
Fore
SplineSet
696 1024 m 257
 696 -411 l 257
 803 -411 l 257
 803 1024 l 257
 696 1024 l 257
174 -299 m 257
 174 -409 l 257
 736 -409 l 257
 736 -299 l 257
 174 -299 l 257
175 -6 m 257
 175 -351 l 257
 258 -351 l 257
 258 -6 l 257
 175 -6 l 257
664 1275 m 257
 664 1147 l 257
 797 1147 l 257
 797 1275 l 257
 664 1275 l 257
EndSplineSet
PickledDataWithLists: "(dp0
."
EndChar

StartChar: k
Encoding: 107 107 59
GlifName: k
Width: 1024
VWidth: 0
Flags: W
LayerCount: 2
Fore
SplineSet
118 1535 m 257
 118 5 l 257
 199 5 l 257
 199 1535 l 257
 118 1535 l 257
167 421 m 257
 178 298 l 257
 865 1023 l 257
 767 1023 l 257
 167 421 l 257
424 631 m 257
 372 569 l 257
 904 -6 l 257
 992 0 l 257
 424 631 l 257
EndSplineSet
PickledDataWithLists: "(dp0
."
EndChar

StartChar: ka-deva
Encoding: 2325 2325 60
GlifName: ka-deva
Width: 1024
VWidth: 0
Flags: W
LayerCount: 2
Fore
SplineSet
-2 1434 m 257
 -2 1359 l 257
 1019 1350 l 257
 1022 1434 l 257
 -2 1434 l 257
596 1399 m 257
 596 51 l 257
 650 51 l 257
 650 1399 l 257
 596 1399 l 257
179 1067 m 257
 180 1012 l 257
 616 1010 l 257
 615 1069 l 257
 179 1067 l 257
168 1068 m 257
 167 604 l 257
 229 604 l 257
 228 1068 l 257
 168 1068 l 257
183 675 m 257
 183 605 l 257
 643 605 l 257
 643 675 l 257
 183 675 l 257
621 999 m 257
 621 942 l 257
 886 942 l 257
 886 999 l 257
 621 999 l 257
836 998 m 257
 839 779 l 257
 895 779 l 257
 894 1000 l 257
 836 998 l 257
EndSplineSet
PickledDataWithLists: "(dp0
."
EndChar

StartChar: l
Encoding: 108 108 61
GlifName: l
Width: 1024
VWidth: 0
Flags: W
LayerCount: 2
Fore
SplineSet
193 80 m 257
 193 9 l 257
 827 9 l 257
 827 80 l 257
 193 80 l 257
434 1536 m 257
 434 57 l 257
 552 57 l 257
 552 1536 l 257
 434 1536 l 257
256 1536 m 257
 256 1453 l 257
 491 1453 l 257
 491 1536 l 257
 256 1536 l 257
EndSplineSet
PickledDataWithLists: "(dp0
."
EndChar

StartChar: less
Encoding: 60 60 62
GlifName: less
Width: 1024
VWidth: 0
Flags: W
LayerCount: 2
Fore
SplineSet
134 652 m 257
 134 569 l 257
 951 946 l 257
 952 1013 l 257
 134 652 l 257
134 652 m 257
 134 569 l 257
 950 122 l 257
 946 199 l 257
 134 652 l 257
EndSplineSet
PickledDataWithLists: "(dp0
Vxyz.fontra.layer-names
p1
(dp2
VSamaano-Thin/public.default
p3
Vdefault
p4
ss."
EndChar

StartChar: m
Encoding: 109 109 63
GlifName: m
Width: 1024
VWidth: 0
Flags: W
LayerCount: 2
Fore
SplineSet
110 993 m 257
 110 1 l 257
 202 1 l 257
 202 993 l 257
 110 993 l 257
472 972 m 257
 472 -2 l 257
 562 -2 l 257
 562 972 l 257
 472 972 l 257
852 976 m 257
 852 1 l 257
 940 1 l 257
 940 976 l 257
 852 976 l 257
35 1025 m 257
 36 950 l 257
 942 952 l 257
 941 1027 l 257
 35 1025 l 257
EndSplineSet
PickledDataWithLists: "(dp0
."
EndChar

StartChar: n
Encoding: 110 110 64
GlifName: n
Width: 1024
VWidth: 0
Flags: W
LayerCount: 2
Fore
SplineSet
340 990 m 257
 340 -2 l 257
 412 -2 l 257
 412 990 l 257
 340 990 l 257
883 976 m 257
 883 1 l 257
 940 1 l 257
 940 976 l 257
 883 976 l 257
161 1025 m 257
 162 960 l 257
 940 962 l 257
 939 1027 l 257
 161 1025 l 257
EndSplineSet
PickledDataWithLists: "(dp0
."
EndChar

StartChar: nine
Encoding: 57 57 65
GlifName: nine
Width: 1200
VWidth: 0
Flags: W
LayerCount: 2
Fore
SplineSet
98 935 m 257
 98 1640 l 257
 200 1640 l 257
 200 935 l 257
 98 935 l 257
204 105 m 257
 964 90 l 257
 960 0 l 257
 210 0 l 257
 204 105 l 257
230 1520 m 257
 230 1630 l 257
 970 1640 l 257
 970 1520 l 257
 230 1520 l 257
240 810 m 257
 240 935 l 257
 960 935 l 257
 960 810 l 257
 240 810 l 257
994 0 m 257
 994 845 l 257
 1102 845 l 257
 1102 0 l 257
 994 0 l 257
1010 935 m 257
 1010 1640 l 257
 1102 1640 l 257
 1102 935 l 257
 1010 935 l 257
EndSplineSet
EndChar

StartChar: numbersign
Encoding: 35 35 66
GlifName: numbersign
Width: 1024
VWidth: 0
Flags: W
LayerCount: 2
Fore
SplineSet
223 1184 m 257
 223 99 l 257
 282 99 l 257
 282 1184 l 257
 223 1184 l 257
718 1192 m 257
 718 95 l 257
 789 95 l 257
 789 1192 l 257
 718 1192 l 257
99 995 m 257
 99 937 l 257
 900 937 l 257
 900 995 l 257
 99 995 l 257
103 493 m 257
 103 417 l 257
 913 417 l 257
 913 493 l 257
 103 493 l 257
EndSplineSet
PickledDataWithLists: "(dp0
."
EndChar

StartChar: o
Encoding: 111 111 67
GlifName: o
Width: 1024
VWidth: 0
Flags: W
LayerCount: 2
Fore
SplineSet
107 1024 m 257
 106 0 l 257
 213 0 l 257
 212 1022 l 257
 107 1024 l 257
831 1024 m 257
 831 0 l 257
 925 0 l 257
 925 1024 l 257
 831 1024 l 257
168 1026 m 257
 168 928 l 257
 868 928 l 257
 869 1027 l 257
 168 1026 l 257
153 78 m 257
 154 0 l 257
 876 0 l 257
 872 84 l 257
 153 78 l 257
EndSplineSet
PickledDataWithLists: "(dp0
."
EndChar

StartChar: one
Encoding: 49 49 68
GlifName: one
Width: 1200
VWidth: 0
Flags: W
LayerCount: 2
Fore
SplineSet
546 0 m 257
 546 845 l 257
 654 845 l 257
 654 0 l 257
 546 0 l 257
562 935 m 257
 562 1640 l 257
 654 1640 l 257
 654 935 l 257
 562 935 l 257
EndSplineSet
EndChar

StartChar: p
Encoding: 112 112 69
GlifName: p
Width: 1024
VWidth: 0
Flags: W
LayerCount: 2
Fore
SplineSet
173 1023 m 257
 173 -406 l 257
 243 -406 l 257
 243 1023 l 257
 173 1023 l 257
224 832 m 257
 224 773 l 257
 812 774 l 257
 810 832 l 257
 224 832 l 257
219 172 m 257
 222 104 l 257
 818 104 l 257
 815 172 l 257
 219 172 l 257
757 803 m 257
 757 138 l 257
 816 138 l 257
 812 802 l 257
 757 803 l 257
EndSplineSet
PickledDataWithLists: "(dp0
Vxyz.fontra.layer-names
p1
(dp2
VSamaano-Thin/public.default
p3
Vdefault
p4
ss."
EndChar

StartChar: parenleft
Encoding: 40 40 70
GlifName: parenleft
Width: 1024
VWidth: 0
Flags: W
LayerCount: 2
Fore
SplineSet
409 1026 m 257
 409 179 l 257
 537 179 l 257
 537 1026 l 257
 409 1026 l 257
773 1636 m 257
 409 1026 l 257
 537 1026 l 257
 800 1633 l 257
 773 1636 l 257
409 179 m 257
 746 -307 l 257
 775 -309 l 257
 537 179 l 257
 409 179 l 257
EndSplineSet
PickledDataWithLists: "(dp0
Vxyz.fontra.layer-names
p1
(dp2
VSamaano-Thin/public.default
p3
VSamaano-Bold/public.default
p4
ss."
EndChar

StartChar: parenright
Encoding: 41 41 71
GlifName: parenright
Width: 1024
VWidth: 0
Flags: W
LayerCount: 2
Fore
SplineSet
409 1026 m 257
 537 1026 l 257
 537 179 l 257
 409 179 l 257
 409 1026 l 257
204 1636 m 257
 242 1635 l 257
 537 1026 l 257
 409 1026 l 257
 204 1636 l 257
409 179 m 257
 537 179 l 257
 233 -309 l 257
 204 -307 l 257
 409 179 l 257
EndSplineSet
PickledDataWithLists: "(dp0
Vxyz.fontra.layer-names
p1
(dp2
VSamaano-Thin/public.default
p3
VSamaano-Bold/public.default
p4
ss."
EndChar

StartChar: percent
Encoding: 37 37 72
GlifName: percent
Width: 1024
VWidth: 0
Flags: W
LayerCount: 2
Fore
SplineSet
131 444 m 257
 160 417 l 257
 907 775 l 257
 888 801 l 257
 131 444 l 257
237 1148 m 257
 237 803 l 257
 268 803 l 257
 268 1148 l 257
 237 1148 l 257
237 1152 m 257
 237 1126 l 257
 584 1126 l 257
 584 1152 l 257
 237 1152 l 257
237 826 m 257
 237 789 l 257
 581 789 l 257
 581 826 l 257
 237 826 l 257
548 1152 m 257
 548 791 l 257
 584 791 l 257
 584 1152 l 257
 548 1152 l 257
564 436 m 257
 564 94 l 257
 607 94 l 257
 607 436 l 257
 564 436 l 257
564 440 m 257
 564 397 l 257
 911 397 l 257
 911 440 l 257
 564 440 l 257
564 109 m 257
 564 77 l 257
 908 77 l 257
 908 109 l 257
 564 109 l 257
877 440 m 257
 877 79 l 257
 911 79 l 257
 911 440 l 257
 877 440 l 257
EndSplineSet
PickledDataWithLists: "(dp0
Vxyz.fontra.layer-names
p1
(dp2
VSamaano-Thin/public.default
p3
Vdefault
p4
ss."
EndChar

StartChar: period
Encoding: 46 46 73
GlifName: period
Width: 1024
VWidth: 0
Flags: W
LayerCount: 2
Fore
SplineSet
441 113 m 257
 441 -1 l 257
 584 -1 l 257
 584 113 l 257
 441 113 l 257
EndSplineSet
PickledDataWithLists: "(dp0
Vxyz.fontra.layer-names
p1
(dp2
VSamaano-Thin/public.default
p3
Vdefault
p4
ss."
EndChar

StartChar: plus
Encoding: 43 43 74
GlifName: plus
Width: 1024
VWidth: 0
Flags: W
LayerCount: 2
Fore
SplineSet
434 1221 m 257
 434 165 l 257
 544 165 l 257
 544 1221 l 257
 434 1221 l 257
61 796 m 257
 61 693 l 257
 963 693 l 257
 963 796 l 257
 61 796 l 257
EndSplineSet
PickledDataWithLists: "(dp0
Vxyz.fontra.layer-names
p1
(dp2
VSamaano-Thin/public.default
p3
Vdefault
p4
ss."
EndChar

StartChar: q
Encoding: 113 113 75
GlifName: q
Width: 1024
VWidth: 0
Flags: W
LayerCount: 2
Fore
SplineSet
781 1011 m 257
 781 -411 l 257
 857 -410 l 257
 857 997 l 257
 781 1011 l 257
205 855 m 257
 205 764 l 257
 854 764 l 257
 854 855 l 257
 205 855 l 257
202 190 m 257
 202 107 l 257
 818 107 l 257
 818 190 l 257
 202 190 l 257
188 855 m 257
 188 107 l 257
 287 107 l 257
 287 855 l 257
 188 855 l 257
804 -344 m 257
 804 -410 l 257
 937 -410 l 257
 937 -344 l 257
 804 -344 l 257
EndSplineSet
PickledDataWithLists: "(dp0
Vxyz.fontra.layer-names
p1
(dp2
VSamaano-Thin/public.default
p3
Vdefault
p4
ss."
EndChar

StartChar: question
Encoding: 63 63 76
GlifName: question
Width: 1024
VWidth: 0
Flags: W
LayerCount: 2
Fore
SplineSet
368 134 m 257
 368 0 l 257
 480 0 l 257
 479 134 l 257
 368 134 l 257
191 1519 m 257
 191 1426 l 257
 828 1426 l 257
 828 1519 l 257
 191 1519 l 257
746 1514 m 257
 746 966 l 257
 832 966 l 257
 832 1514 l 257
 746 1514 l 257
368 1015 m 257
 368 948 l 257
 832 948 l 257
 832 1015 l 257
 368 1015 l 257
368 1011 m 257
 368 392 l 257
 464 392 l 257
 464 1011 l 257
 368 1011 l 257
EndSplineSet
PickledDataWithLists: "(dp0
Vxyz.fontra.layer-names
p1
(dp2
VSamaano-Thin/public.default
p3
Vdefault
p4
ss."
EndChar

StartChar: quotedbl
Encoding: 34 34 77
GlifName: quotedbl
Width: 1200
VWidth: 0
Flags: W
LayerCount: 2
Fore
SplineSet
359 1326 m 257
 424 1326 l 257
 424 1574 l 257
 359 1574 l 257
 359 1326 l 257
762 1326 m 257
 822 1326 l 257
 822 1574 l 257
 762 1574 l 257
 762 1326 l 257
EndSplineSet
PickledDataWithLists: "(dp0
Vxyz.fontra.layer-names
p1
(dp2
VSamaano-Thin/public.default
p3
VSamaano-Bold/public.default
p4
ss."
EndChar

StartChar: quotesingle
Encoding: 39 39 78
GlifName: quotesingle
Width: 1024
VWidth: 0
Flags: W
LayerCount: 2
Fore
SplineSet
480 1496 m 257
 480 1317 l 257
 543 1317 l 257
 543 1496 l 257
 480 1496 l 257
EndSplineSet
PickledDataWithLists: "(dp0
."
EndChar

StartChar: r
Encoding: 114 114 79
GlifName: r
Width: 1024
VWidth: 0
Flags: W
LayerCount: 2
Fore
SplineSet
165 1013 m 257
 165 926 l 257
 898 926 l 257
 898 1013 l 257
 165 1013 l 257
380 954 m 257
 380 -2 l 257
 477 -2 l 257
 477 954 l 257
 380 954 l 257
807 976 m 257
 807 650 l 257
 898 650 l 257
 898 976 l 257
 807 976 l 257
EndSplineSet
PickledDataWithLists: "(dp0
Vxyz.fontra.layer-names
p1
(dp2
VSamaano-Thin/public.default
p3
Vdefault
p4
ss."
EndChar

StartChar: s
Encoding: 115 115 80
GlifName: s
Width: 1024
VWidth: 0
Flags: W
LayerCount: 2
Fore
SplineSet
186 1024 m 257
 187 933 l 257
 796 934 l 257
 795 1024 l 257
 186 1024 l 257
186 1024 m 257
 186 736 l 257
 261 736 l 257
 261 1024 l 257
 186 1024 l 257
187 65 m 257
 186 0 l 257
 793 0 l 257
 792 65 l 257
 187 65 l 257
726 299 m 257
 726 12 l 257
 793 12 l 257
 793 299 l 257
 726 299 l 257
186 736 m 257
 726 299 l 257
 793 299 l 257
 261 736 l 257
 186 736 l 257
EndSplineSet
PickledDataWithLists: "(dp0
Vxyz.fontra.layer-names
p1
(dp2
VSamaano-Thin/public.default
p3
Vdefault
p4
ss."
EndChar

StartChar: semicolon
Encoding: 59 59 81
GlifName: semicolon
Width: 1024
VWidth: 0
Flags: W
LayerCount: 2
Fore
SplineSet
508 164 m 257
 508 7 l 257
 645 7 l 257
 645 164 l 257
 508 164 l 257
592 135 m 257
 551 -99 l 257
 600 -148 l 257
 643 26 l 257
 592 135 l 257
508 503 m 257
 508 346 l 257
 645 346 l 257
 645 503 l 257
 508 503 l 257
EndSplineSet
PickledDataWithLists: "(dp0
Vxyz.fontra.layer-names
p1
(dp2
VSamaano-Thin/public.default
p3
Vdefault
p4
ss."
EndChar

StartChar: seven
Encoding: 55 55 82
GlifName: seven
Width: 1200
VWidth: 0
Flags: W
LayerCount: 2
Fore
SplineSet
164 1520 m 257
 164 1630 l 257
 904 1640 l 257
 904 1520 l 257
 164 1520 l 257
951 984 m 257
 940 1635 l 257
 1039 1635 l 257
 1047 980 l 257
 951 984 l 257
966 30 m 257
 951 933 l 257
 1040 943 l 257
 1062 30 l 257
 966 30 l 257
EndSplineSet
EndChar

StartChar: six
Encoding: 54 54 83
GlifName: six
Width: 1200
VWidth: 0
Flags: W
LayerCount: 2
Fore
SplineSet
98 0 m 257
 98 860 l 257
 194 860 l 257
 194 0 l 257
 98 0 l 257
98 935 m 257
 98 1640 l 257
 200 1640 l 257
 200 935 l 257
 98 935 l 257
204 105 m 257
 964 90 l 257
 960 0 l 257
 210 0 l 257
 204 105 l 257
230 1520 m 257
 230 1630 l 257
 970 1640 l 257
 970 1520 l 257
 230 1520 l 257
240 810 m 257
 240 935 l 257
 960 935 l 257
 960 810 l 257
 240 810 l 257
994 0 m 257
 994 845 l 257
 1102 845 l 257
 1102 0 l 257
 994 0 l 257
EndSplineSet
EndChar

StartChar: slash
Encoding: 47 47 84
GlifName: slash
Width: 1024
VWidth: 0
Flags: W
LayerCount: 2
Fore
SplineSet
757 1474 m 257
 170 4 l 257
 273 10 l 257
 860 1480 l 257
 757 1474 l 257
EndSplineSet
PickledDataWithLists: "(dp0
Vxyz.fontra.layer-names
p1
(dp2
VSamaano-Thin/public.default
p3
Vdefault
p4
ss."
EndChar

StartChar: t
Encoding: 116 116 86
GlifName: t
Width: 1024
VWidth: 0
Flags: W
LayerCount: 2
Fore
SplineSet
371 1529 m 257
 371 0 l 257
 483 0 l 257
 483 1529 l 257
 371 1529 l 257
418 93 m 257
 418 0 l 257
 809 0 l 257
 809 93 l 257
 418 93 l 257
101 1025 m 257
 102 934 l 257
 776 934 l 257
 775 1025 l 257
 101 1025 l 257
EndSplineSet
PickledDataWithLists: "(dp0
Vxyz.fontra.layer-names
p1
(dp2
VSamaano-Thin/public.default
p3
Vdefault
p4
ss."
EndChar

StartChar: three
Encoding: 51 51 87
GlifName: three
Width: 1200
VWidth: 0
Flags: W
LayerCount: 2
Fore
SplineSet
152 105 m 257
 912 90 l 257
 906 0 l 257
 156 0 l 257
 152 105 l 257
176 1520 m 257
 176 1630 l 257
 916 1640 l 257
 916 1520 l 257
 176 1520 l 257
186 810 m 257
 186 935 l 257
 906 935 l 257
 906 810 l 257
 186 810 l 257
942 0 m 257
 942 845 l 257
 1048 845 l 257
 1048 0 l 257
 942 0 l 257
956 935 m 257
 956 1640 l 257
 1048 1640 l 257
 1048 935 l 257
 956 935 l 257
EndSplineSet
EndChar

StartChar: two
Encoding: 50 50 88
GlifName: two
Width: 1200
VWidth: 0
Flags: W
LayerCount: 2
Fore
SplineSet
98 111 m 257
 98 795 l 257
 194 795 l 257
 194 111 l 257
 98 111 l 257
204 105 m 257
 964 90 l 257
 960 0 l 257
 210 0 l 257
 204 105 l 257
230 1520 m 257
 230 1630 l 257
 970 1640 l 257
 970 1520 l 257
 230 1520 l 257
240 810 m 257
 240 935 l 257
 960 935 l 257
 960 810 l 257
 240 810 l 257
1010 935 m 257
 1010 1640 l 257
 1102 1640 l 257
 1102 935 l 257
 1010 935 l 257
EndSplineSet
EndChar

StartChar: u
Encoding: 117 117 89
GlifName: u
Width: 1024
VWidth: 0
Flags: W
LayerCount: 2
Fore
SplineSet
157 1034 m 257
 157 0 l 257
 252 0 l 257
 254 1034 l 257
 157 1034 l 257
710 1033 m 257
 710 4 l 257
 790 4 l 257
 790 1033 l 257
 710 1033 l 257
204 70 m 257
 205 0 l 257
 906 0 l 257
 906 70 l 257
 204 70 l 257
EndSplineSet
PickledDataWithLists: "(dp0
Vxyz.fontra.layer-names
p1
(dp2
VSamaano-Thin/public.default
p3
Vdefault
p4
ss."
EndChar

StartChar: v
Encoding: 118 118 90
GlifName: v
Width: 1024
VWidth: 0
Flags: W
LayerCount: 2
Fore
SplineSet
165 1021 m 257
 477 0 l 257
 573 0 l 257
 270 1027 l 257
 165 1021 l 257
725 1025 m 257
 477 1 l 257
 570 -2 l 257
 827 1021 l 257
 725 1025 l 257
EndSplineSet
PickledDataWithLists: "(dp0
Vxyz.fontra.layer-names
p1
(dp2
VSamaano-Thin/public.default
p3
Vdefault
p4
ss."
EndChar

StartChar: w
Encoding: 119 119 91
GlifName: w
Width: 1024
VWidth: 0
Flags: W
LayerCount: 2
Fore
SplineSet
104 1023 m 257
 104 1 l 257
 190 0 l 257
 190 1023 l 257
 104 1023 l 257
828 1028 m 257
 828 12 l 257
 922 12 l 257
 922 1028 l 257
 828 1028 l 257
480 610 m 257
 480 1 l 257
 560 1 l 257
 560 610 l 257
 480 610 l 257
103 112 m 257
 105 0 l 257
 922 0 l 257
 922 112 l 257
 103 112 l 257
EndSplineSet
PickledDataWithLists: "(dp0
Vxyz.fontra.layer-names
p1
(dp2
VSamaano-Thin/public.default
p3
Vdefault
p4
ss."
EndChar

StartChar: x
Encoding: 120 120 92
GlifName: x
Width: 1200
VWidth: 0
Flags: W
LayerCount: 2
Fore
SplineSet
151 0 m 257
 976 1024 l 257
 1047 1024 l 257
 207 2 l 257
 151 0 l 257
148 1024 m 257
 212 1024 l 257
 1052 0 l 257
 988 4 l 257
 148 1024 l 257
EndSplineSet
PickledDataWithLists: "(dp0
Vxyz.fontra.layer-names
p1
(dp2
VSamaano-Thin/public.default
p3
VSamaano-Bold/public.default
p4
ss."
EndChar

StartChar: y
Encoding: 121 121 93
GlifName: y
Width: 1024
VWidth: 0
Flags: W
LayerCount: 2
Fore
SplineSet
806 1023 m 257
 806 -410 l 257
 880 -410 l 257
 880 1023 l 257
 806 1023 l 257
150 -322 m 257
 150 -410 l 257
 867 -410 l 257
 867 -322 l 257
 150 -322 l 257
150 1023 m 257
 150 264 l 257
 241 264 l 257
 241 1023 l 257
 150 1023 l 257
150 353 m 257
 150 264 l 257
 840 264 l 257
 840 353 l 257
 150 353 l 257
EndSplineSet
PickledDataWithLists: "(dp0
Vxyz.fontra.layer-names
p1
(dp2
VSamaano-Thin/public.default
p3
Vdefault
p4
ss."
EndChar

StartChar: z
Encoding: 122 122 94
GlifName: z
Width: 1024
VWidth: 0
Flags: W
LayerCount: 2
Fore
SplineSet
98 1018 m 257
 98 931 l 257
 926 931 l 257
 926 1018 l 257
 98 1018 l 257
98 94 m 257
 98 4 l 257
 926 4 l 257
 926 94 l 257
 98 94 l 257
831 931 m 257
 95 92 l 257
 192 93 l 257
 926 931 l 257
 831 931 l 257
EndSplineSet
PickledDataWithLists: "(dp0
Vxyz.fontra.layer-names
p1
(dp2
VSamaano-Thin/public.default
p3
Vdefault
p4
ss."
EndChar

StartChar: zero
Encoding: 48 48 95
GlifName: zero
Width: 1200
VWidth: 0
Flags: W
LayerCount: 2
Fore
SplineSet
98 0 m 257
 98 860 l 257
 194 860 l 257
 194 0 l 257
 98 0 l 257
98 935 m 257
 98 1640 l 257
 200 1640 l 257
 200 935 l 257
 98 935 l 257
204 105 m 257
 964 90 l 257
 960 0 l 257
 210 0 l 257
 204 105 l 257
230 1520 m 257
 230 1630 l 257
 970 1640 l 257
 970 1520 l 257
 230 1520 l 257
994 0 m 257
 994 845 l 257
 1102 845 l 257
 1102 0 l 257
 994 0 l 257
1010 935 m 257
 1010 1640 l 257
 1102 1640 l 257
 1102 935 l 257
 1010 935 l 257
458 1013 m 257
 458 709 l 257
 679 709 l 257
 679 1013 l 257
 458 1013 l 257
EndSplineSet
EndChar

StartChar: underscore
Encoding: 95 95 96
Width: 1024
Flags: HW
LayerCount: 2
Fore
SplineSet
0 0 m 5
 0 -40 l 5
 1024 -40 l 5
 1024 0 l 5
 0 0 l 5
EndSplineSet
EndChar
